<?xml version="1.0" encoding="UTF-8" standalone="no"?>
<svg
   viewBox="0 0 48 48"
   width="48px"
   height="48px"
   version="1.1"
   id="svg13"
   sodipodi:docname="icons8-cloud-connection-code-fork.svg"
   inkscape:version="1.3.2 (091e20ef0f, 2023-11-25, custom)"
   xmlns:inkscape="http://www.inkscape.org/namespaces/inkscape"
   xmlns:sodipodi="http://sodipodi.sourceforge.net/DTD/sodipodi-0.dtd"
   xmlns:xlink="http://www.w3.org/1999/xlink"
   xmlns="http://www.w3.org/2000/svg"
   xmlns:svg="http://www.w3.org/2000/svg">
  <defs
     id="defs13">
    <linearGradient
       id="QgUaws64YxhvGqCk0wkKBa"
       x1="9.743"
       x2="16.549"
       y1="35.743"
       y2="42.549999"
       gradientTransform="matrix(0.51228982,0,0,0.51228982,12.413305,4.5572938)"
       gradientUnits="userSpaceOnUse">
      <stop
         offset="0"
         stop-color="#33bef0"
         id="stop1-9"
         style="stop-color:#67cdf1;stop-opacity:1;" />
      <stop
         offset="1"
         stop-color="#0a85d9"
         id="stop2-2"
         style="stop-color:#26a0f5;stop-opacity:1;" />
    </linearGradient>
    <linearGradient
       inkscape:collect="always"
       xlink:href="#QgUaws64YxhvGqCk0wkKBb"
       id="linearGradient15"
       gradientUnits="userSpaceOnUse"
       gradientTransform="matrix(0.51228982,0,0,0.51228982,12.413305,4.5572938)"
       x1="31.304001"
       y1="8.3039999"
       x2="38.668999"
       y2="15.669" />
    <linearGradient
       id="QgUaws64YxhvGqCk0wkKBb"
       x1="31.304001"
       x2="38.668999"
       y1="8.3039999"
       y2="15.669"
       gradientTransform="matrix(0.6558372,0,0,0.6558372,8.4634685,9.1232084)"
       gradientUnits="userSpaceOnUse">
      <stop
         offset="0"
         stop-color="#33bef0"
         id="stop3-8"
         style="stop-color:#5ecdf3;stop-opacity:1;" />
      <stop
         offset="1"
         stop-color="#0a85d9"
         id="stop4-7"
         style="stop-color:#239ef4;stop-opacity:1;" />
    </linearGradient>
    <linearGradient
       id="QgUaws64YxhvGqCk0wkKBc"
       x1="9.474"
       x2="16.691"
       y1="5.474"
       y2="12.691"
       gradientTransform="matrix(0.51228982,0,0,0.51228982,12.413305,4.5572938)"
       gradientUnits="userSpaceOnUse">
      <stop
         offset="0"
         stop-color="#33bef0"
         id="stop5-6"
         style="stop-color:#62cdf1;stop-opacity:1;" />
      <stop
         offset="1"
         stop-color="#0a85d9"
         id="stop6-1"
         style="stop-color:#23a0f4;stop-opacity:1;" />
    </linearGradient>
  </defs>
  <sodipodi:namedview
     id="namedview13"
     pagecolor="#ffffff"
     bordercolor="#666666"
     borderopacity="1.0"
     inkscape:showpageshadow="2"
     inkscape:pageopacity="0.0"
     inkscape:pagecheckerboard="0"
     inkscape:deskcolor="#d1d1d1"
     inkscape:zoom="12.40625"
     inkscape:cx="17.047859"
     inkscape:cy="35.103275"
     inkscape:window-width="2560"
     inkscape:window-height="1379"
     inkscape:window-x="1200"
     inkscape:window-y="264"
     inkscape:window-maximized="1"
     inkscape:current-layer="svg13" />
  <linearGradient
     id="~V8OEjf1cw0Fhs~EIn8Csa"
     x1="22.819"
     x2="18.478"
     y1="15.89"
     y2="15.89"
     gradientTransform="matrix(1 0 0 -1 0 47.89)"
     gradientUnits="userSpaceOnUse">
    <stop
       offset=".168"
       stop-color="#c9cdcf"
       id="stop1" />
    <stop
       offset=".269"
       stop-color="#d2d5d7"
       id="stop2" />
    <stop
       offset=".482"
       stop-color="#e1e2e4"
       id="stop3" />
    <stop
       offset=".859"
       stop-color="#e4e4e6"
       id="stop4" />
  </linearGradient>
  <path
     fill="url(#~V8OEjf1cw0Fhs~EIn8Csa)"
     d="M25.682,38H18c-2.757,0-5-2.243-5-5v-6c0-0.552,0.447-1,1-1s1,0.448,1,1v6 c0,1.654,1.346,3,3,3h7.682c0.553,0,1,0.447,1,1S26.234,38,25.682,38z"
     id="path4" />
  <linearGradient
     id="~V8OEjf1cw0Fhs~EIn8Csb"
     x1="-456.6"
     x2="-456.6"
     y1="240.392"
     y2="244.546"
     gradientTransform="matrix(0 -1 -1 0 277.218 -416.6)"
     gradientUnits="userSpaceOnUse">
    <stop
       offset="0"
       stop-color="#fede00"
       id="stop5" />
    <stop
       offset=".787"
       stop-color="#ffd400"
       id="stop6" />
    <stop
       offset="1"
       stop-color="#ffd000"
       id="stop7" />
  </linearGradient>
  <path
     fill="url(#~V8OEjf1cw0Fhs~EIn8Csb)"
     d="M37,39.973v0.055C37,40.565,36.565,41,36.027,41h-4.073v-2h4.073 C36.565,39,37,39.435,37,39.973z"
     id="path7" />
  <linearGradient
     id="~V8OEjf1cw0Fhs~EIn8Csc"
     x1="-450.6"
     x2="-450.6"
     y1="240.272"
     y2="244.078"
     gradientTransform="matrix(0 -1 -1 0 277.218 -416.6)"
     gradientUnits="userSpaceOnUse">
    <stop
       offset="0"
       stop-color="#fede00"
       id="stop8" />
    <stop
       offset=".567"
       stop-color="#fed900"
       id="stop9" />
    <stop
       offset="1"
       stop-color="#ffd000"
       id="stop10" />
  </linearGradient>
  <path
     fill="url(#~V8OEjf1cw0Fhs~EIn8Csc)"
     d="M37,33.973v0.055C37,34.565,36.565,35,36.027,35h-4.073v-2h4.073 C36.565,33,37,33.435,37,33.973z"
     id="path10" />
  <path
     fill="#a1aab3"
     d="M22,39v-4c0-0.98,0.572-1.983,1.479-2.421l0,0C24.265,32.198,25.133,32,26.012,32h4.681v10h-4.681 c-0.88,0-1.747-0.198-2.534-0.579l0,0C22.572,40.983,22,39.98,22,39z"
     id="path11" />
  <path
     fill="#8795a1"
     d="M30.063,42V32c0-0.552,0.448-1,1-1h1.153c0.552,0,1,0.448,1,1v10c0,0.552-0.448,1-1,1h-1.153 C30.51,43,30.063,42.552,30.063,42z"
     id="path12" />
  <linearGradient
     id="~V8OEjf1cw0Fhs~EIn8Csd"
     x1="16.832"
     x2="30.197"
     y1="42.119"
     y2="16.983"
     gradientTransform="matrix(1 0 0 -1 0 47.89)"
     gradientUnits="userSpaceOnUse">
    <stop
       offset="0"
       stop-color="#2aa4f4"
       id="stop12"
       style="stop-color:#957af7;stop-opacity:1;" />
    <stop
       offset="1"
       stop-color="#007ad9"
       id="stop13"
       style="stop-color:#481bff;stop-opacity:1;" />
  </linearGradient>
  <path
     fill="url(#~V8OEjf1cw0Fhs~EIn8Csd)"
     d="M34.183,9.034C31.992,5.422,28.034,3,23.5,3c-6.087,0-11.152,4.353-12.266,10.115 C7.696,13.718,5,16.79,5,20.5c0,4.142,3.358,7.5,7.5,7.5c0.007,0,0.014-0.001,0.021-0.001V28H33.5c5.247,0,9.5-4.253,9.5-9.5 C43,13.484,39.11,9.386,34.183,9.034z"
     id="path13" />
  <rect
     width="2.0491593"
     height="12.294956"
     x="18.099209"
     y="10.698625"
     fill="#64717c"
     id="rect1"
     style="fill:#bfcfed;fill-opacity:1;stroke-width:0.51229" />
  <path
     fill="#64717c"
     d="m 18.103308,20.945445 c -0.002,-2.535835 2.619338,-2.974867 4.932326,-3.361645 3.825781,-0.640875 6.333439,-1.359618 6.329854,-5.35804 l 2.049158,-0.002 c 0.0056,6.033749 -4.836528,6.844192 -8.040388,7.381072 -2.37805,0.398049 -3.222303,0.660341 -3.221791,1.339126 z"
     id="path1-0"
     style="fill:#bfcfed;fill-opacity:1;stroke-width:0.51229" />
  <circle
     cx="19.092541"
     cy="24.530449"
     r="2.5614491"
     fill="url(#QgUaws64YxhvGqCk0wkKBa)"
     id="circle2"
     style="fill:url(#QgUaws64YxhvGqCk0wkKBa);stroke-width:0.51229" />
  <circle
     cx="30.349598"
     cy="10.687866"
     r="2.5614491"
     fill="url(#QgUaws64YxhvGqCk0wkKBb)"
     id="circle4"
     style="fill:url(#linearGradient15);stroke-width:0.51229" />
  <circle
     cx="19.077682"
     cy="9.1617546"
     r="2.5614491"
     fill="url(#QgUaws64YxhvGqCk0wkKBc)"
     id="circle6"
     style="fill:url(#QgUaws64YxhvGqCk0wkKBc);stroke-width:0.51229" />
</svg>
