<?xml version="1.0" standalone="no"?>
<!DOCTYPE svg PUBLIC "-//W3C//DTD SVG 20010904//EN"
 "http://www.w3.org/TR/2001/REC-SVG-20010904/DTD/svg10.dtd">
<svg version="1.0" xmlns="http://www.w3.org/2000/svg"
 width="211.000000pt" height="184.000000pt" viewBox="0 0 211.000000 184.000000"
 preserveAspectRatio="xMidYMid meet">

<g transform="translate(0.000000,184.000000) scale(0.100000,-0.100000)"
fill="#000000" stroke="none">
<path d="M947 1666 c-68 -19 -149 -79 -192 -140 -89 -130 -87 -290 5 -419 l41
-57 -98 -157 c-84 -135 -102 -158 -128 -163 -47 -10 -73 -28 -91 -62 -34 -65
-12 -153 46 -183 61 -31 147 -11 173 43 22 43 28 79 17 107 -9 25 1 45 110
220 81 130 120 203 120 222 0 22 -11 38 -46 67 -56 47 -83 103 -84 174 0 130
95 226 225 226 133 0 225 -95 225 -234 0 -47 4 -64 20 -80 26 -26 64 -25 91 3
19 20 20 31 17 102 -4 62 -11 93 -33 138 -36 73 -123 155 -191 180 -66 24
-167 30 -227 13z"/>
<path d="M978 1434 c-56 -30 -77 -118 -44 -182 18 -34 44 -52 91 -62 25 -5 46
-32 152 -200 137 -217 145 -225 211 -191 89 46 179 36 253 -27 124 -106 101
-299 -46 -374 -53 -28 -144 -27 -205 1 -56 26 -65 26 -90 1 -45 -45 -14 -105
69 -135 159 -56 333 0 421 135 47 73 64 141 58 229 -6 85 -34 147 -95 212 -87
94 -225 137 -339 106 l-51 -13 -99 155 c-55 87 -97 164 -96 176 10 92 -8 144
-58 170 -37 19 -97 19 -132 -1z"/>
<path d="M420 911 c-49 -27 -127 -112 -153 -169 -18 -38 -22 -66 -22 -142 0
-85 3 -101 29 -154 37 -76 96 -135 172 -172 51 -25 70 -29 144 -29 72 1 95 5
147 29 95 44 202 169 203 239 0 16 17 17 225 17 146 0 225 -4 225 -10 0 -19
64 -50 103 -50 76 0 130 53 130 130 0 77 -54 130 -130 130 -39 0 -103 -31
-103 -50 0 -6 -88 -10 -252 -10 -288 0 -298 -2 -311 -65 -19 -91 -29 -117 -59
-151 -47 -53 -102 -78 -173 -78 -238 0 -314 317 -102 425 46 24 62 60 45 97
-17 34 -68 40 -118 13z"/>
</g>
</svg>
